<?xml version="1.0" encoding="UTF-8" standalone="no"?>
<!-- Created with Inkscape (http://www.inkscape.org/) -->

<svg
   xmlns:osb="http://www.openswatchbook.org/uri/2009/osb"
   xmlns:dc="http://purl.org/dc/elements/1.1/"
   xmlns:cc="http://creativecommons.org/ns#"
   xmlns:rdf="http://www.w3.org/1999/02/22-rdf-syntax-ns#"
   xmlns:svg="http://www.w3.org/2000/svg"
   xmlns="http://www.w3.org/2000/svg"
   xmlns:xlink="http://www.w3.org/1999/xlink"
   xmlns:sodipodi="http://sodipodi.sourceforge.net/DTD/sodipodi-0.dtd"
   xmlns:inkscape="http://www.inkscape.org/namespaces/inkscape"
   width="124mm"
   height="64mm"
   viewBox="0 0 439.36983 226.77166"
   id="svg10611"
   version="1.1"
   inkscape:version="0.91 r"
   sodipodi:docname="compare.svg">
  <defs
     id="defs10613">
    <marker
       inkscape:isstock="true"
       style="overflow:visible"
       id="marker15395"
       refX="0"
       refY="0"
       orient="auto"
       inkscape:stockid="DotM">
      <path
         transform="matrix(0.4,0,0,0.4,2.96,0.4)"
         style="fill:#008000;fill-opacity:1;fill-rule:evenodd;stroke:#000000;stroke-width:1pt;stroke-opacity:1"
         d="m -2.5,-1 c 0,2.76 -2.24,5 -5,5 -2.76,0 -5,-2.24 -5,-5 0,-2.76 2.24,-5 5,-5 2.76,0 5,2.24 5,5 z"
         id="path15397"
         inkscape:connector-curvature="0" />
    </marker>
    <marker
       inkscape:isstock="true"
       style="overflow:visible"
       id="marker15307"
       refX="0"
       refY="0"
       orient="auto"
       inkscape:stockid="DotM">
      <path
         transform="matrix(0.4,0,0,0.4,2.96,0.4)"
         style="fill:#008000;fill-opacity:1;fill-rule:evenodd;stroke:#000000;stroke-width:1pt;stroke-opacity:1"
         d="m -2.5,-1 c 0,2.76 -2.24,5 -5,5 -2.76,0 -5,-2.24 -5,-5 0,-2.76 2.24,-5 5,-5 2.76,0 5,2.24 5,5 z"
         id="path15309"
         inkscape:connector-curvature="0" />
    </marker>
    <marker
       inkscape:isstock="true"
       style="overflow:visible"
       id="marker13839"
       refX="0"
       refY="0"
       orient="auto"
       inkscape:stockid="DotM">
      <path
         transform="matrix(0.4,0,0,0.4,2.96,0.4)"
         style="fill:#008000;fill-opacity:1;fill-rule:evenodd;stroke:#000000;stroke-width:1pt;stroke-opacity:1"
         d="m -2.5,-1 c 0,2.76 -2.24,5 -5,5 -2.76,0 -5,-2.24 -5,-5 0,-2.76 2.24,-5 5,-5 2.76,0 5,2.24 5,5 z"
         id="path13841"
         inkscape:connector-curvature="0" />
    </marker>
    <marker
       inkscape:isstock="true"
       style="overflow:visible"
       id="marker13757"
       refX="0"
       refY="0"
       orient="auto"
       inkscape:stockid="DotM">
      <path
         transform="matrix(0.4,0,0,0.4,2.96,0.4)"
         style="fill:#008000;fill-opacity:1;fill-rule:evenodd;stroke:#000000;stroke-width:1pt;stroke-opacity:1"
         d="m -2.5,-1 c 0,2.76 -2.24,5 -5,5 -2.76,0 -5,-2.24 -5,-5 0,-2.76 2.24,-5 5,-5 2.76,0 5,2.24 5,5 z"
         id="path13759"
         inkscape:connector-curvature="0" />
    </marker>
    <marker
       inkscape:stockid="DotM"
       orient="auto"
       refY="0"
       refX="0"
       id="marker12861"
       style="overflow:visible"
       inkscape:isstock="true"
       inkscape:collect="always">
      <path
         id="path12863"
         d="m -2.5,-1 c 0,2.76 -2.24,5 -5,5 -2.76,0 -5,-2.24 -5,-5 0,-2.76 2.24,-5 5,-5 2.76,0 5,2.24 5,5 z"
         style="fill:#000000;fill-opacity:1;fill-rule:evenodd;stroke:#000000;stroke-width:1pt;stroke-opacity:1"
         transform="matrix(0.4,0,0,0.4,2.96,0.4)"
         inkscape:connector-curvature="0" />
    </marker>
    <linearGradient
       id="linearGradient12835"
       osb:paint="solid">
      <stop
         style="stop-color:#008000;stop-opacity:1;"
         offset="0"
         id="stop12837" />
    </linearGradient>
    <linearGradient
       id="linearGradient12811"
       osb:paint="solid">
      <stop
         style="stop-color:#008000;stop-opacity:1;"
         offset="0"
         id="stop12813" />
    </linearGradient>
    <linearGradient
       id="linearGradient12787"
       osb:paint="solid">
      <stop
         style="stop-color:#008000;stop-opacity:1;"
         offset="0"
         id="stop12789" />
    </linearGradient>
    <marker
       inkscape:isstock="true"
       style="overflow:visible"
       id="marker11439"
       refX="0"
       refY="0"
       orient="auto"
       inkscape:stockid="DotM"
       inkscape:collect="always">
      <path
         transform="matrix(0.4,0,0,0.4,2.96,0.4)"
         style="fill:#000000;fill-opacity:1;fill-rule:evenodd;stroke:#000000;stroke-width:1pt;stroke-opacity:1"
         d="m -2.5,-1 c 0,2.76 -2.24,5 -5,5 -2.76,0 -5,-2.24 -5,-5 0,-2.76 2.24,-5 5,-5 2.76,0 5,2.24 5,5 z"
         id="path11441"
         inkscape:connector-curvature="0" />
    </marker>
    <marker
       inkscape:stockid="DotM"
       orient="auto"
       refY="0"
       refX="0"
       id="marker11351"
       style="overflow:visible"
       inkscape:isstock="true"
       inkscape:collect="always">
      <path
         id="path11353"
         d="m -2.5,-1 c 0,2.76 -2.24,5 -5,5 -2.76,0 -5,-2.24 -5,-5 0,-2.76 2.24,-5 5,-5 2.76,0 5,2.24 5,5 z"
         style="fill:#008000;fill-opacity:1;fill-rule:evenodd;stroke:#000000;stroke-width:1pt;stroke-opacity:1"
         transform="matrix(0.4,0,0,0.4,2.96,0.4)"
         inkscape:connector-curvature="0" />
    </marker>
    <marker
       inkscape:isstock="true"
       style="overflow:visible"
       id="marker11281"
       refX="0"
       refY="0"
       orient="auto"
       inkscape:stockid="DotM"
       inkscape:collect="always">
      <path
         transform="matrix(0.4,0,0,0.4,2.96,0.4)"
         style="fill:#008000;fill-opacity:1;fill-rule:evenodd;stroke:#000000;stroke-width:1pt;stroke-opacity:1"
         d="m -2.5,-1 c 0,2.76 -2.24,5 -5,5 -2.76,0 -5,-2.24 -5,-5 0,-2.76 2.24,-5 5,-5 2.76,0 5,2.24 5,5 z"
         id="path11283"
         inkscape:connector-curvature="0" />
    </marker>
    <marker
       inkscape:isstock="true"
       style="overflow:visible"
       id="marker11235"
       refX="0"
       refY="0"
       orient="auto"
       inkscape:stockid="DotM">
      <path
         transform="matrix(0.4,0,0,0.4,2.96,0.4)"
         style="fill:#008000;fill-opacity:1;fill-rule:evenodd;stroke:#000000;stroke-width:1pt;stroke-opacity:1"
         d="m -2.5,-1 c 0,2.76 -2.24,5 -5,5 -2.76,0 -5,-2.24 -5,-5 0,-2.76 2.24,-5 5,-5 2.76,0 5,2.24 5,5 z"
         id="path11237"
         inkscape:connector-curvature="0" />
    </marker>
    <marker
       inkscape:stockid="DotM"
       orient="auto"
       refY="0"
       refX="0"
       id="marker11195"
       style="overflow:visible"
       inkscape:isstock="true"
       inkscape:collect="always">
      <path
         id="path11197"
         d="m -2.5,-1 c 0,2.76 -2.24,5 -5,5 -2.76,0 -5,-2.24 -5,-5 0,-2.76 2.24,-5 5,-5 2.76,0 5,2.24 5,5 z"
         style="fill:#000000;fill-opacity:1;fill-rule:evenodd;stroke:#000000;stroke-width:1pt;stroke-opacity:1"
         transform="matrix(0.4,0,0,0.4,2.96,0.4)"
         inkscape:connector-curvature="0" />
    </marker>
    <marker
       inkscape:stockid="DotM"
       orient="auto"
       refY="0"
       refX="0"
       id="DotM"
       style="overflow:visible"
       inkscape:isstock="true">
      <path
         id="path5696"
         d="m -2.5,-1 c 0,2.76 -2.24,5 -5,5 -2.76,0 -5,-2.24 -5,-5 0,-2.76 2.24,-5 5,-5 2.76,0 5,2.24 5,5 z"
         style="fill:#000000;fill-opacity:1;fill-rule:evenodd;stroke:#000000;stroke-width:1pt;stroke-opacity:1"
         transform="matrix(0.4,0,0,0.4,2.96,0.4)"
         inkscape:connector-curvature="0" />
    </marker>
    <linearGradient
       inkscape:collect="always"
       xlink:href="#linearGradient12787"
       id="linearGradient12791"
       x1="143.71939"
       y1="419.3298"
       x2="259.24313"
       y2="419.3298"
       gradientUnits="userSpaceOnUse" />
    <linearGradient
       inkscape:collect="always"
       xlink:href="#linearGradient12811"
       id="linearGradient12815"
       x1="112.44742"
       y1="418.88705"
       x2="172.58733"
       y2="418.88705"
       gradientUnits="userSpaceOnUse" />
    <linearGradient
       inkscape:collect="always"
       xlink:href="#linearGradient12835"
       id="linearGradient12839"
       x1="143.41104"
       y1="495.51993"
       x2="258.25333"
       y2="495.51993"
       gradientUnits="userSpaceOnUse" />
  </defs>
  <sodipodi:namedview
     id="base"
     pagecolor="#ffffff"
     bordercolor="#666666"
     borderopacity="1.0"
     inkscape:pageopacity="0.0"
     inkscape:pageshadow="2"
     inkscape:zoom="1"
     inkscape:cx="288.52525"
     inkscape:cy="415.52282"
     inkscape:document-units="px"
     inkscape:current-layer="layer1"
     showgrid="false"
     inkscape:window-width="1920"
     inkscape:window-height="1020"
     inkscape:window-x="0"
     inkscape:window-y="0"
     inkscape:window-maximized="1" />
  <metadata
     id="metadata10616">
    <rdf:RDF>
      <cc:Work
         rdf:about="">
        <dc:format>image/svg+xml</dc:format>
        <dc:type
           rdf:resource="http://purl.org/dc/dcmitype/StillImage" />
        <dc:title></dc:title>
      </cc:Work>
    </rdf:RDF>
  </metadata>
  <g
     inkscape:label="Layer 1"
     inkscape:groupmode="layer"
     id="layer1"
     transform="translate(0,-825.59054)">
    <g
       id="g15516"
       transform="translate(-65.000008,492)">
      <g
         id="g15499">
        <path
           style="fill:url(#linearGradient12791);fill-opacity:1;fill-rule:evenodd;stroke:#000000;stroke-width:1px;stroke-linecap:butt;stroke-linejoin:miter;stroke-opacity:1;marker-start:url(#marker11351);marker-mid:url(#marker11351);marker-end:url(#marker11351)"
           d="m 173,345.3622 -27,148 111,-57 z"
           id="path11167"
           inkscape:connector-curvature="0" />
        <path
           style="fill:url(#linearGradient12839);fill-opacity:1;fill-rule:evenodd;stroke:#000000;stroke-width:1px;stroke-linecap:butt;stroke-linejoin:miter;stroke-opacity:1;marker-start:url(#marker11235);marker-mid:url(#marker11281);marker-end:url(#marker11281)"
           d="M 256,436.3622 246.25145,554.73648 145.62573,493.60786"
           id="path11169"
           inkscape:connector-curvature="0"
           sodipodi:nodetypes="ccc" />
        <path
           style="fill:none;fill-rule:evenodd;stroke:#000000;stroke-width:1px;stroke-linecap:butt;stroke-linejoin:miter;stroke-opacity:1;marker-start:url(#marker11439);marker-end:url(#marker11439)"
           d="m 173,345.3622 -102,6"
           id="path11171"
           inkscape:connector-curvature="0" />
        <path
           style="fill:none;fill-rule:evenodd;stroke:#000000;stroke-width:1px;stroke-linecap:butt;stroke-linejoin:miter;stroke-opacity:1;marker-start:url(#DotM);marker-end:url(#marker11195)"
           d="M 145.74856,493.48503 73,509.3622"
           id="path11173"
           inkscape:connector-curvature="0"
           sodipodi:nodetypes="cc" />
        <path
           style="fill:url(#linearGradient12815);fill-opacity:1;fill-rule:evenodd;stroke:#000000;stroke-width:1px;stroke-linecap:butt;stroke-linejoin:miter;stroke-opacity:1;marker-start:url(#marker15395);marker-mid:url(#marker15307);marker-end:url(#marker13839)"
           d="M 146.34206,494.31613 111.16009,435.18046 172.91568,344.60558 146.34206,493.1933"
           id="path12763"
           inkscape:connector-curvature="0"
           sodipodi:nodetypes="ccc" />
        <path
           style="fill:none;fill-rule:evenodd;stroke:#000000;stroke-width:1;stroke-linecap:butt;stroke-linejoin:miter;stroke-miterlimit:4;stroke-dasharray:1, 1;stroke-dashoffset:0;stroke-opacity:1"
           d="m 112.28291,435.55474 143.72213,0.37428"
           id="path12765"
           inkscape:connector-curvature="0" />
        <path
           style="fill:none;fill-rule:evenodd;stroke:#000000;stroke-width:1px;stroke-linecap:butt;stroke-linejoin:miter;stroke-opacity:1;marker-start:url(#marker12861);marker-end:url(#marker12861)"
           d="m 146.34206,493.56758 110.03726,-56.89"
           id="path12859"
           inkscape:connector-curvature="0"
           sodipodi:nodetypes="cc" />
        <path
           style="opacity:1;fill:#1a1a1a;fill-opacity:1;stroke:#000000;stroke-width:0.37427637;stroke-miterlimit:4;stroke-dasharray:0.37427637, 0.37427637;stroke-dashoffset:0;stroke-opacity:1"
           d="m 171.59211,345.63309 c -0.6392,-0.77018 -0.1714,-2.33409 0.78937,-2.63903 0.54415,-0.17271 1.03301,-0.01 1.56355,0.5206 0.65775,0.65776 0.70777,0.91255 0.33831,1.72343 -0.49376,1.08368 -1.94313,1.29641 -2.69123,0.395 z"
           id="path15491"
           inkscape:connector-curvature="0" />
        <path
           style="opacity:1;fill:#1a1a1a;fill-opacity:1;stroke:#000000;stroke-width:0.37427637;stroke-miterlimit:4;stroke-dasharray:0.37427637, 0.37427637;stroke-dashoffset:0;stroke-opacity:1"
           d="m 172.0372,345.74052 c -0.55495,-0.55495 -0.58852,-2.04048 -0.0536,-2.37109 0.21755,-0.13446 0.80704,-0.14119 1.30997,-0.015 1.14299,0.28687 1.26633,1.87195 0.19047,2.44773 -0.90223,0.48286 -0.90231,0.48286 -1.44686,-0.0617 z"
           id="path15493"
           inkscape:connector-curvature="0" />
        <path
           style="opacity:1;fill:#1a1a1a;fill-opacity:1;stroke:#000000;stroke-width:0.37427637;stroke-miterlimit:4;stroke-dasharray:0.37427637, 0.37427637;stroke-dashoffset:0;stroke-opacity:1"
           d="m 109.8631,436.24002 c -0.62436,-0.75231 -0.39269,-1.70291 0.57059,-2.34137 0.69587,-0.46121 0.89348,-0.43499 1.68425,0.22354 0.50627,0.4216 0.68219,0.75147 0.40451,0.75851 -0.29234,0.007 -0.44394,0.35356 -0.37428,0.85457 0.0924,0.66477 -0.0867,0.86581 -0.85063,0.95461 -0.53225,0.0619 -1.17775,-0.14057 -1.43444,-0.44986 z"
           id="path15495"
           inkscape:connector-curvature="0" />
        <path
           style="opacity:1;fill:#1a1a1a;fill-opacity:1;stroke:#000000;stroke-width:0.37427637;stroke-miterlimit:4;stroke-dasharray:0.37427637, 0.37427637;stroke-dashoffset:0;stroke-opacity:1"
           d="m 245.39673,555.94538 c -1.41356,-0.99009 -0.84139,-2.7809 0.88851,-2.7809 1.70345,0 2.16658,1.88042 0.70216,2.85098 -0.65264,0.43254 -0.88788,0.42218 -1.59067,-0.0701 z"
           id="path15497"
           inkscape:connector-curvature="0" />
      </g>
      <path
         inkscape:transform-center-y="11.256963"
         inkscape:transform-center-x="-5.8012838"
         d="M 352.19407,499.93027 313.1988,392.19602 425.99703,412.29226 Z"
         inkscape:randomized="0"
         inkscape:rounded="0"
         inkscape:flatsided="true"
         sodipodi:arg2="2.7943049"
         sodipodi:arg1="1.7471073"
         sodipodi:r2="33.074787"
         sodipodi:r1="66.149574"
         sodipodi:cy="434.80618"
         sodipodi:cx="363.79663"
         sodipodi:sides="3"
         id="path15512"
         style="opacity:1;fill:#008000;fill-opacity:1;stroke:#000000;stroke-width:1;stroke-miterlimit:4;stroke-dasharray:none;stroke-dashoffset:0;stroke-opacity:1"
         sodipodi:type="star" />
      <path
         inkscape:transform-center-y="7.4855275"
         inkscape:transform-center-x="15.880356"
         d="m 375.77352,471.85951 77.50304,-92.65378 41.48901,113.4465 z"
         inkscape:randomized="0"
         inkscape:rounded="0"
         inkscape:flatsided="true"
         sodipodi:arg2="3.8381852"
         sodipodi:arg1="2.7909876"
         sodipodi:r2="45.348106"
         sodipodi:r1="69.741058"
         sodipodi:cy="447.90582"
         sodipodi:cx="441.27188"
         sodipodi:sides="3"
         id="path15514"
         style="opacity:1;fill:#008000;fill-opacity:1;stroke:#000000;stroke-width:1;stroke-miterlimit:4;stroke-dasharray:none;stroke-dashoffset:0;stroke-opacity:1"
         sodipodi:type="star" />
    </g>
  </g>
</svg>
